<svg id="visual" viewBox="0 0 960 540" width="960" height="540" xmlns="http://www.w3.org/2000/svg" xmlns:xlink="http://www.w3.org/1999/xlink" version="1.1"><path d="M0 195L13.3 199.5C26.7 204 53.3 213 80 225.7C106.7 238.3 133.3 254.7 160 266.5C186.7 278.3 213.3 285.7 240 276.7C266.7 267.7 293.3 242.3 320 222.5C346.7 202.7 373.3 188.3 400 170.3C426.7 152.3 453.3 130.7 480 140.5C506.7 150.3 533.3 191.7 560 214.2C586.7 236.7 613.3 240.3 640 217.8C666.7 195.3 693.3 146.7 720 126C746.7 105.3 773.3 112.7 800 122.7C826.7 132.7 853.3 145.3 880 159.7C906.7 174 933.3 190 946.7 198L960 206L960 0L946.7 0C933.3 0 906.7 0 880 0C853.3 0 826.7 0 800 0C773.3 0 746.7 0 720 0C693.3 0 666.7 0 640 0C613.3 0 586.7 0 560 0C533.3 0 506.7 0 480 0C453.3 0 426.7 0 400 0C373.3 0 346.7 0 320 0C293.3 0 266.7 0 240 0C213.3 0 186.7 0 160 0C133.3 0 106.7 0 80 0C53.3 0 26.7 0 13.3 0L0 0Z" fill="#1e1e27"></path><path d="M0 325L13.3 321.3C26.7 317.7 53.3 310.3 80 309.5C106.7 308.7 133.3 314.3 160 321.7C186.7 329 213.3 338 240 338C266.7 338 293.3 329 320 309.2C346.7 289.3 373.3 258.7 400 237.8C426.7 217 453.3 206 480 215C506.7 224 533.3 253 560 271C586.7 289 613.3 296 640 275.3C666.7 254.7 693.3 206.3 720 194.7C746.7 183 773.3 208 800 217.8C826.7 227.7 853.3 222.3 880 232.3C906.7 242.3 933.3 267.7 946.7 280.3L960 293L960 204L946.7 196C933.3 188 906.7 172 880 157.7C853.3 143.3 826.7 130.7 800 120.7C773.3 110.7 746.7 103.3 720 124C693.3 144.7 666.7 193.3 640 215.8C613.3 238.3 586.7 234.7 560 212.2C533.3 189.7 506.7 148.3 480 138.5C453.3 128.7 426.7 150.3 400 168.3C373.3 186.3 346.7 200.7 320 220.5C293.3 240.3 266.7 265.7 240 274.7C213.3 283.7 186.7 276.3 160 264.5C133.3 252.7 106.7 236.3 80 223.7C53.3 211 26.7 202 13.3 197.5L0 193Z" fill="#2c5c7a"></path><path d="M0 482L13.3 477.5C26.7 473 53.3 464 80 455.8C106.7 447.7 133.3 440.3 160 442C186.7 443.7 213.3 454.3 240 453.5C266.7 452.7 293.3 440.3 320 424.2C346.7 408 373.3 388 400 391.5C426.7 395 453.3 422 480 428.3C506.7 434.7 533.3 420.3 560 420.3C586.7 420.3 613.3 434.7 640 432.8C666.7 431 693.3 413 720 407.7C746.7 402.3 773.3 409.7 800 423.2C826.7 436.7 853.3 456.3 880 460.8C906.7 465.3 933.3 454.7 946.7 449.3L960 444L960 291L946.7 278.3C933.3 265.7 906.7 240.3 880 230.3C853.3 220.3 826.7 225.7 800 215.8C773.3 206 746.7 181 720 192.7C693.3 204.3 666.7 252.7 640 273.3C613.3 294 586.7 287 560 269C533.3 251 506.7 222 480 213C453.3 204 426.7 215 400 235.8C373.3 256.7 346.7 287.3 320 307.2C293.3 327 266.7 336 240 336C213.3 336 186.7 327 160 319.7C133.3 312.3 106.7 306.7 80 307.5C53.3 308.3 26.7 315.7 13.3 319.3L0 323Z" fill="#00a8bb"></path><path d="M0 541L13.3 541C26.7 541 53.3 541 80 541C106.7 541 133.3 541 160 541C186.7 541 213.3 541 240 541C266.7 541 293.3 541 320 541C346.7 541 373.3 541 400 541C426.7 541 453.3 541 480 541C506.7 541 533.3 541 560 541C586.7 541 613.3 541 640 541C666.7 541 693.3 541 720 541C746.7 541 773.3 541 800 541C826.7 541 853.3 541 880 541C906.7 541 933.3 541 946.7 541L960 541L960 442L946.7 447.3C933.3 452.7 906.7 463.3 880 458.8C853.3 454.3 826.7 434.7 800 421.2C773.3 407.7 746.7 400.3 720 405.7C693.3 411 666.7 429 640 430.8C613.3 432.7 586.7 418.3 560 418.3C533.3 418.3 506.7 432.7 480 426.3C453.3 420 426.7 393 400 389.5C373.3 386 346.7 406 320 422.2C293.3 438.3 266.7 450.7 240 451.5C213.3 452.3 186.7 441.7 160 440C133.3 438.3 106.7 445.7 80 453.8C53.3 462 26.7 471 13.3 475.5L0 480Z" fill="#00f3a5"></path></svg>