<svg id="visual" viewBox="0 0 960 540" width="960" height="540" xmlns="http://www.w3.org/2000/svg" xmlns:xlink="http://www.w3.org/1999/xlink" version="1.1"><path d="M0 44L10.7 71C21.3 98 42.7 152 64 186.2C85.3 220.3 106.7 234.7 128 229.3C149.3 224 170.7 199 192 167.5C213.3 136 234.7 98 256 101.5C277.3 105 298.7 150 320 147.3C341.3 144.7 362.7 94.3 384 116.8C405.3 139.3 426.7 234.7 448 249.2C469.3 263.7 490.7 197.3 512 179.3C533.3 161.3 554.7 191.7 576 199.7C597.3 207.7 618.7 193.3 640 189.8C661.3 186.3 682.7 193.7 704 180.2C725.3 166.7 746.7 132.3 768 148.5C789.3 164.7 810.7 231.3 832 224.2C853.3 217 874.7 136 896 91.8C917.3 47.7 938.7 40.3 949.3 36.7L960 33L960 0L949.3 0C938.7 0 917.3 0 896 0C874.7 0 853.3 0 832 0C810.7 0 789.3 0 768 0C746.7 0 725.3 0 704 0C682.7 0 661.3 0 640 0C618.7 0 597.3 0 576 0C554.7 0 533.3 0 512 0C490.7 0 469.3 0 448 0C426.7 0 405.3 0 384 0C362.7 0 341.3 0 320 0C298.7 0 277.3 0 256 0C234.7 0 213.3 0 192 0C170.7 0 149.3 0 128 0C106.7 0 85.3 0 64 0C42.7 0 21.3 0 10.7 0L0 0Z" fill="#1e1e27"></path><path d="M0 152L10.7 170C21.3 188 42.7 224 64 261C85.3 298 106.7 336 128 339.7C149.3 343.3 170.7 312.7 192 282.8C213.3 253 234.7 224 256 218.5C277.3 213 298.7 231 320 226.5C341.3 222 362.7 195 384 220.3C405.3 245.7 426.7 323.3 448 327.8C469.3 332.3 490.7 263.7 512 251C533.3 238.3 554.7 281.7 576 290.7C597.3 299.7 618.7 274.3 640 269C661.3 263.7 682.7 278.3 704 266.7C725.3 255 746.7 217 768 225C789.3 233 810.7 287 832 277.2C853.3 267.3 874.7 193.7 896 147.8C917.3 102 938.7 84 949.3 75L960 66L960 31L949.3 34.7C938.7 38.3 917.3 45.7 896 89.8C874.7 134 853.3 215 832 222.2C810.7 229.3 789.3 162.7 768 146.5C746.7 130.3 725.3 164.7 704 178.2C682.7 191.7 661.3 184.3 640 187.8C618.7 191.3 597.3 205.7 576 197.7C554.7 189.7 533.3 159.3 512 177.3C490.7 195.3 469.3 261.7 448 247.2C426.7 232.7 405.3 137.3 384 114.8C362.7 92.3 341.3 142.7 320 145.3C298.7 148 277.3 103 256 99.5C234.7 96 213.3 134 192 165.5C170.7 197 149.3 222 128 227.3C106.7 232.7 85.3 218.3 64 184.2C42.7 150 21.3 96 10.7 69L0 42Z" fill="#2f4b65"></path><path d="M0 212L10.7 223.7C21.3 235.3 42.7 258.7 64 296.3C85.3 334 106.7 386 128 402.2C149.3 418.3 170.7 398.7 192 361.8C213.3 325 234.7 271 256 266.5C277.3 262 298.7 307 320 312.3C341.3 317.7 362.7 283.3 384 296C405.3 308.7 426.7 368.3 448 367.5C469.3 366.7 490.7 305.3 512 296.3C533.3 287.3 554.7 330.7 576 346C597.3 361.3 618.7 348.7 640 343.2C661.3 337.7 682.7 339.3 704 325.8C725.3 312.3 746.7 283.7 768 299.8C789.3 316 810.7 377 832 362.5C853.3 348 874.7 258 896 214C917.3 170 938.7 172 949.3 173L960 174L960 64L949.3 73C938.7 82 917.3 100 896 145.8C874.7 191.7 853.3 265.3 832 275.2C810.7 285 789.3 231 768 223C746.7 215 725.3 253 704 264.7C682.7 276.3 661.3 261.7 640 267C618.7 272.3 597.3 297.7 576 288.7C554.7 279.7 533.3 236.3 512 249C490.7 261.7 469.3 330.3 448 325.8C426.7 321.3 405.3 243.7 384 218.3C362.7 193 341.3 220 320 224.5C298.7 229 277.3 211 256 216.5C234.7 222 213.3 251 192 280.8C170.7 310.7 149.3 341.3 128 337.7C106.7 334 85.3 296 64 259C42.7 222 21.3 186 10.7 168L0 150Z" fill="#0081a1"></path><path d="M0 352L10.7 360.2C21.3 368.3 42.7 384.7 64 405.3C85.3 426 106.7 451 128 451C149.3 451 170.7 426 192 398.2C213.3 370.3 234.7 339.7 256 336.8C277.3 334 298.7 359 320 358C341.3 357 362.7 330 384 344.5C405.3 359 426.7 415 448 424C469.3 433 490.7 395 512 394C533.3 393 554.7 429 576 431.8C597.3 434.7 618.7 404.3 640 397.2C661.3 390 682.7 406 704 406C725.3 406 746.7 390 768 399C789.3 408 810.7 442 832 423C853.3 404 874.7 332 896 306.8C917.3 281.7 938.7 303.3 949.3 314.2L960 325L960 172L949.3 171C938.7 170 917.3 168 896 212C874.7 256 853.3 346 832 360.5C810.7 375 789.3 314 768 297.8C746.7 281.7 725.3 310.3 704 323.8C682.7 337.3 661.3 335.7 640 341.2C618.7 346.7 597.3 359.3 576 344C554.7 328.7 533.3 285.3 512 294.3C490.7 303.3 469.3 364.7 448 365.5C426.7 366.3 405.3 306.7 384 294C362.7 281.3 341.3 315.7 320 310.3C298.7 305 277.3 260 256 264.5C234.7 269 213.3 323 192 359.8C170.7 396.7 149.3 416.3 128 400.2C106.7 384 85.3 332 64 294.3C42.7 256.7 21.3 233.3 10.7 221.7L0 210Z" fill="#00bcbe"></path><path d="M0 541L10.7 541C21.3 541 42.7 541 64 541C85.3 541 106.7 541 128 541C149.3 541 170.7 541 192 541C213.3 541 234.7 541 256 541C277.3 541 298.7 541 320 541C341.3 541 362.7 541 384 541C405.3 541 426.7 541 448 541C469.3 541 490.7 541 512 541C533.3 541 554.7 541 576 541C597.3 541 618.7 541 640 541C661.3 541 682.7 541 704 541C725.3 541 746.7 541 768 541C789.3 541 810.7 541 832 541C853.3 541 874.7 541 896 541C917.3 541 938.7 541 949.3 541L960 541L960 323L949.3 312.2C938.7 301.3 917.3 279.7 896 304.8C874.7 330 853.3 402 832 421C810.7 440 789.3 406 768 397C746.7 388 725.3 404 704 404C682.7 404 661.3 388 640 395.2C618.7 402.3 597.3 432.7 576 429.8C554.7 427 533.3 391 512 392C490.7 393 469.3 431 448 422C426.7 413 405.3 357 384 342.5C362.7 328 341.3 355 320 356C298.7 357 277.3 332 256 334.8C234.7 337.7 213.3 368.3 192 396.2C170.7 424 149.3 449 128 449C106.7 449 85.3 424 64 403.3C42.7 382.7 21.3 366.3 10.7 358.2L0 350Z" fill="#00f3a5"></path></svg>