<svg id="visual" viewBox="0 0 960 540" width="960" height="540" xmlns="http://www.w3.org/2000/svg" xmlns:xlink="http://www.w3.org/1999/xlink" version="1.1"><path d="M0 125L13.3 117.8C26.7 110.7 53.3 96.3 80 83.8C106.7 71.3 133.3 60.7 160 66C186.7 71.3 213.3 92.7 240 103.3C266.7 114 293.3 114 320 110.5C346.7 107 373.3 100 400 101C426.7 102 453.3 111 480 110C506.7 109 533.3 98 560 87.2C586.7 76.3 613.3 65.7 640 64C666.7 62.3 693.3 69.7 720 77.8C746.7 86 773.3 95 800 99.5C826.7 104 853.3 104 880 98.5C906.7 93 933.3 82 946.7 76.5L960 71L960 0L946.7 0C933.3 0 906.7 0 880 0C853.3 0 826.7 0 800 0C773.3 0 746.7 0 720 0C693.3 0 666.7 0 640 0C613.3 0 586.7 0 560 0C533.3 0 506.7 0 480 0C453.3 0 426.7 0 400 0C373.3 0 346.7 0 320 0C293.3 0 266.7 0 240 0C213.3 0 186.7 0 160 0C133.3 0 106.7 0 80 0C53.3 0 26.7 0 13.3 0L0 0Z" fill="#1e1e27"></path><path d="M0 222L13.3 212.2C26.7 202.3 53.3 182.7 80 182.7C106.7 182.7 133.3 202.3 160 207.7C186.7 213 213.3 204 240 211.3C266.7 218.7 293.3 242.3 320 239.7C346.7 237 373.3 208 400 191.7C426.7 175.3 453.3 171.7 480 183.3C506.7 195 533.3 222 560 223C586.7 224 613.3 199 640 179.3C666.7 159.7 693.3 145.3 720 148C746.7 150.7 773.3 170.3 800 175.7C826.7 181 853.3 172 880 163.8C906.7 155.7 933.3 148.3 946.7 144.7L960 141L960 69L946.7 74.5C933.3 80 906.7 91 880 96.5C853.3 102 826.7 102 800 97.5C773.3 93 746.7 84 720 75.8C693.3 67.7 666.7 60.3 640 62C613.3 63.7 586.7 74.3 560 85.2C533.3 96 506.7 107 480 108C453.3 109 426.7 100 400 99C373.3 98 346.7 105 320 108.5C293.3 112 266.7 112 240 101.3C213.3 90.7 186.7 69.3 160 64C133.3 58.7 106.7 69.3 80 81.8C53.3 94.3 26.7 108.7 13.3 115.8L0 123Z" fill="#2c5c7a"></path><path d="M0 406L13.3 409.7C26.7 413.3 53.3 420.7 80 419.8C106.7 419 133.3 410 160 414.5C186.7 419 213.3 437 240 435.2C266.7 433.3 293.3 411.7 320 398.2C346.7 384.7 373.3 379.3 400 369.3C426.7 359.3 453.3 344.7 480 346.3C506.7 348 533.3 366 560 376C586.7 386 613.3 388 640 388C666.7 388 693.3 386 720 373.3C746.7 360.7 773.3 337.3 800 322.2C826.7 307 853.3 300 880 300C906.7 300 933.3 307 946.7 310.5L960 314L960 139L946.7 142.7C933.3 146.3 906.7 153.7 880 161.8C853.3 170 826.7 179 800 173.7C773.3 168.3 746.7 148.7 720 146C693.3 143.3 666.7 157.7 640 177.3C613.3 197 586.7 222 560 221C533.3 220 506.7 193 480 181.3C453.3 169.7 426.7 173.3 400 189.7C373.3 206 346.7 235 320 237.7C293.3 240.3 266.7 216.7 240 209.3C213.3 202 186.7 211 160 205.7C133.3 200.3 106.7 180.7 80 180.7C53.3 180.7 26.7 200.3 13.3 210.2L0 220Z" fill="#00a8bb"></path><path d="M0 541L13.3 541C26.7 541 53.3 541 80 541C106.7 541 133.3 541 160 541C186.7 541 213.3 541 240 541C266.7 541 293.3 541 320 541C346.7 541 373.3 541 400 541C426.7 541 453.3 541 480 541C506.7 541 533.3 541 560 541C586.7 541 613.3 541 640 541C666.7 541 693.3 541 720 541C746.7 541 773.3 541 800 541C826.7 541 853.3 541 880 541C906.7 541 933.3 541 946.7 541L960 541L960 312L946.7 308.5C933.3 305 906.7 298 880 298C853.3 298 826.7 305 800 320.2C773.3 335.3 746.7 358.7 720 371.3C693.3 384 666.7 386 640 386C613.3 386 586.7 384 560 374C533.3 364 506.7 346 480 344.3C453.3 342.7 426.7 357.3 400 367.3C373.3 377.3 346.7 382.7 320 396.2C293.3 409.7 266.7 431.3 240 433.2C213.3 435 186.7 417 160 412.5C133.3 408 106.7 417 80 417.8C53.3 418.7 26.7 411.3 13.3 407.7L0 404Z" fill="#00f3a5"></path></svg>